<?xml version="1.0" encoding="UTF-8" standalone="no"?>
<svg
   xmlns:dc="http://purl.org/dc/elements/1.1/"
   xmlns:cc="http://creativecommons.org/ns#"
   xmlns:rdf="http://www.w3.org/1999/02/22-rdf-syntax-ns#"
   xmlns:svg="http://www.w3.org/2000/svg"
   xmlns="http://www.w3.org/2000/svg"
   id="svg8"
   version="1.1"
   viewBox="0 0 26.458342 35.71875"
   height="35.71875mm"
   width="26.458342mm">
  <defs
     id="defs2" />
  <metadata
     id="metadata5">
    <rdf:RDF>
      <cc:Work
         rdf:about="">
        <dc:format>image/svg+xml</dc:format>
        <dc:type
           rdf:resource="http://purl.org/dc/dcmitype/StillImage" />
        <dc:title></dc:title>
      </cc:Work>
    </rdf:RDF>
  </metadata>
  <g
     transform="translate(-87.3125,-113.11458)"
     id="layer1">
    <path
       d="m 95.25,115.76042 h 14.55208 c 0.41716,0.4802 1.01075,0.88759 1.32292,1.41128 V 138.25 c -1.5875,2.64583 -3.175,5.29167 -4.7625,7.9375 H 91.28125 c -0.417158,-0.48019 -1.01075,-0.88709 -1.32292,-1.41077 v -21.07881 c 1.763893,-2.64583 3.52778,-5.29167 5.29167,-7.9375 z m -2.645833,-2.64584 c -1.76389,2.64583 -3.527777,5.29167 -5.291667,7.9375 v 26.45834 c 0.4802,0.41716 0.88708,1.01074 1.41077,1.32291 h 19.7559 c 1.76389,-2.64583 3.52777,-5.29167 5.29167,-7.9375 V 114.4375 c -0.4802,-0.41716 -0.88708,-1.01075 -1.41077,-1.32292 z"
       style="fill:#000000;fill-opacity:1;stroke:#000000;stroke-width:0;stroke-linecap:butt;stroke-linejoin:miter;stroke-miterlimit:4;stroke-dasharray:none;stroke-opacity:1"
       id="path19502" />
  </g>
</svg>
